<svg width="49" height="46" viewBox="0 0 49 46" fill="none" xmlns="http://www.w3.org/2000/svg">
<path d="M0 45.12V37.696H31.168V45.12H0ZM12.288 45.12V5.632L0.896 17.984V8.32L8.384 0H20.352V45.12H12.288Z" fill="white"/>
<path d="M43.447 45.44C41.9963 45.44 40.7803 44.9493 39.799 43.968C38.8177 42.944 38.327 41.7067 38.327 40.256C38.327 38.8907 38.8177 37.7173 39.799 36.736C40.7803 35.712 41.9963 35.2 43.447 35.2C44.983 35.2 46.2203 35.712 47.159 36.736C48.1403 37.7173 48.631 38.8907 48.631 40.256C48.631 41.7067 48.1403 42.944 47.159 43.968C46.2203 44.9493 44.983 45.44 43.447 45.44Z" fill="white"/>
</svg>
