<svg width="51" height="47" viewBox="0 0 51 47" fill="none" xmlns="http://www.w3.org/2000/svg">
<path d="M1.024 46.144V36.864L17.152 23.872C18.688 22.592 19.904 21.44 20.8 20.416C21.696 19.392 22.3147 18.3467 22.656 17.28C23.04 16.1707 23.232 14.976 23.232 13.696C23.232 11.7333 22.6133 10.1547 21.376 8.96C20.1813 7.72267 18.432 7.104 16.128 7.104C13.824 7.104 11.9467 7.76533 10.496 9.088C9.088 10.4107 8.17067 12.3093 7.744 14.784L0 13.44C0.341333 10.6667 1.216 8.27733 2.624 6.272C4.07467 4.26667 5.97333 2.73067 8.32 1.664C10.6667 0.554666 13.4187 0 16.576 0C19.7333 0 22.4427 0.533333 24.704 1.6C27.008 2.624 28.7787 4.11733 30.016 6.08C31.2533 8 31.872 10.304 31.872 12.992C31.872 16.064 31.1467 18.7947 29.696 21.184C28.288 23.5733 26.1547 25.92 23.296 28.224L10.368 38.72H33.216V46.144H1.024Z" fill="white"/>
<path d="M45.751 46.464C44.3003 46.464 43.0843 45.9733 42.103 44.992C41.1217 43.968 40.631 42.7307 40.631 41.28C40.631 39.9147 41.1217 38.7413 42.103 37.76C43.0843 36.736 44.3003 36.224 45.751 36.224C47.287 36.224 48.5243 36.736 49.463 37.76C50.4443 38.7413 50.935 39.9147 50.935 41.28C50.935 42.7307 50.4443 43.968 49.463 44.992C48.5243 45.9733 47.287 46.464 45.751 46.464Z" fill="white"/>
</svg>
