<svg width="53" height="48" viewBox="0 0 53 48" fill="none" xmlns="http://www.w3.org/2000/svg">
<path d="M17.28 47.336C14.3787 47.336 11.7547 46.8667 9.408 45.928C7.06133 44.9893 5.09867 43.624 3.52 41.832C1.94133 40.04 0.768 37.864 0 35.304L7.744 32.936C8.384 35.4107 9.536 37.2453 11.2 38.44C12.864 39.6347 14.9973 40.232 17.6 40.232C19.3493 40.232 20.8 39.912 21.952 39.272C23.1467 38.632 24.064 37.7573 24.704 36.648C25.344 35.496 25.664 34.1947 25.664 32.744C25.664 30.312 24.8107 28.4987 23.104 27.304C21.3973 26.1093 19.0293 25.512 16 25.512H12.224V20.84H22.08V21.544C25.7493 21.7573 28.6293 22.952 30.72 25.128C32.8107 27.2613 33.856 29.992 33.856 33.32C33.856 36.0933 33.1733 38.5467 31.808 40.68C30.4427 42.7707 28.5227 44.4133 26.048 45.608C23.5733 46.76 20.6507 47.336 17.28 47.336ZM12.224 22.888V18.984H16.32C18.9653 18.984 20.9707 18.4507 22.336 17.384C23.744 16.3173 24.448 14.8027 24.448 12.84C24.448 11.1333 23.872 9.768 22.72 8.744C21.6107 7.67734 19.84 7.144 17.408 7.144C15.36 7.144 13.5893 7.592 12.096 8.488C10.6453 9.384 9.57867 10.7493 8.896 12.584L1.472 10.216C2.15467 8.04 3.24267 6.20534 4.736 4.712C6.22933 3.176 8.02133 2.024 10.112 1.256C12.2027 0.488004 14.528 0.104004 17.088 0.104004C20.288 0.104004 22.9973 0.573336 25.216 1.512C27.4347 2.45067 29.12 3.79467 30.272 5.544C31.4667 7.25067 32.064 9.29867 32.064 11.688C32.064 13.864 31.5093 15.8053 30.4 17.512C29.3333 19.2187 27.8827 20.5413 26.048 21.48C24.2133 22.4187 22.144 22.888 19.84 22.888H12.224Z" fill="white"/>
<path d="M46.839 46.568C45.3883 46.568 44.1723 46.0773 43.191 45.096C42.2097 44.072 41.719 42.8347 41.719 41.384C41.719 40.0187 42.2097 38.8453 43.191 37.864C44.1723 36.84 45.3883 36.328 46.839 36.328C48.375 36.328 49.6123 36.84 50.551 37.864C51.5323 38.8453 52.023 40.0187 52.023 41.384C52.023 42.8347 51.5323 44.072 50.551 45.096C49.6123 46.0773 48.375 46.568 46.839 46.568Z" fill="white"/>
</svg>
