<svg width="52" height="46" viewBox="0 0 52 46" fill="none" xmlns="http://www.w3.org/2000/svg">
<path d="M21.44 45.12V29.184L21.632 27.264V4.544L6.208 25.216H24.128L26.816 24.896H35.84V32.064H0V22.72L16.768 0H29.824V45.12H21.44Z" fill="white"/>
<path d="M46.519 45.44C45.0683 45.44 43.8523 44.9493 42.871 43.968C41.8897 42.944 41.399 41.7067 41.399 40.256C41.399 38.8907 41.8897 37.7173 42.871 36.736C43.8523 35.712 45.0683 35.2 46.519 35.2C48.055 35.2 49.2923 35.712 50.231 36.736C51.2123 37.7173 51.703 38.8907 51.703 40.256C51.703 41.7067 51.2123 42.944 50.231 43.968C49.2923 44.9493 48.055 45.44 46.519 45.44Z" fill="white"/>
</svg>
