<svg width="52" height="47" viewBox="0 0 52 47" fill="none" xmlns="http://www.w3.org/2000/svg">
<path d="M16.832 46.208C12.3093 46.208 8.61867 45.2053 5.76 43.2C2.944 41.152 1.024 38.1653 0 34.24L7.808 31.872C8.53333 34.432 9.64267 36.288 11.136 37.44C12.6293 38.5493 14.4853 39.104 16.704 39.104C19.2213 39.104 21.184 38.3787 22.592 36.928C24.0427 35.4773 24.768 33.5787 24.768 31.232C24.768 29.568 24.3627 28.1387 23.552 26.944C22.784 25.7067 21.6107 24.768 20.032 24.128C18.4533 23.488 16.448 23.168 14.016 23.168H3.84L5.312 0H31.936V7.232H9.152L12.032 4.864L11.008 20.288L8.32 16.256H15.616C21.12 16.256 25.3867 17.5573 28.416 20.16C31.4453 22.72 32.96 26.3253 32.96 30.976C32.96 34.0907 32.2987 36.8 30.976 39.104C29.696 41.3653 27.84 43.1147 25.408 44.352C23.0187 45.5893 20.16 46.208 16.832 46.208Z" fill="white"/>
<path d="M46.007 45.44C44.5563 45.44 43.3403 44.9493 42.359 43.968C41.3777 42.944 40.887 41.7067 40.887 40.256C40.887 38.8907 41.3777 37.7173 42.359 36.736C43.3403 35.712 44.5563 35.2 46.007 35.2C47.543 35.2 48.7803 35.712 49.719 36.736C50.7003 37.7173 51.191 38.8907 51.191 40.256C51.191 41.7067 50.7003 42.944 49.719 43.968C48.7803 44.9493 47.543 45.44 46.007 45.44Z" fill="white"/>
</svg>
