<svg width="52" height="47" viewBox="0 0 52 47" fill="none" xmlns="http://www.w3.org/2000/svg">
<path d="M16.96 46.208C13.7173 46.208 10.816 45.5467 8.256 44.224C5.696 42.8587 3.66933 40.9813 2.176 38.592C0.725333 36.2027 0 33.408 0 30.208C0 27.8187 0.341333 25.4933 1.024 23.232C1.74933 20.928 2.83733 18.6027 4.288 16.256C5.78133 13.8667 7.68 11.328 9.984 8.64L17.664 0H27.84L16.96 11.648C16.064 12.6293 15.2747 13.5253 14.592 14.336C13.9093 15.104 13.3333 15.808 12.864 16.448C12.3947 17.088 11.9893 17.7067 11.648 18.304C12.6293 17.4507 13.7387 16.8107 14.976 16.384C16.256 15.9573 17.6213 15.744 19.072 15.744C21.8453 15.744 24.32 16.3627 26.496 17.6C28.672 18.8373 30.4 20.5653 31.68 22.784C32.96 24.96 33.6 27.5413 33.6 30.528C33.6 33.6 32.8747 36.3093 31.424 38.656C29.9733 41.0027 27.9893 42.8587 25.472 44.224C22.9973 45.5467 20.16 46.208 16.96 46.208ZM17.024 39.296C18.6453 39.296 20.0747 38.9333 21.312 38.208C22.592 37.44 23.5947 36.416 24.32 35.136C25.0453 33.8133 25.408 32.3413 25.408 30.72C25.408 29.056 25.0453 27.584 24.32 26.304C23.5947 25.024 22.592 24.0213 21.312 23.296C20.032 22.5707 18.56 22.208 16.896 22.208C15.2747 22.208 13.824 22.592 12.544 23.36C11.264 24.0853 10.24 25.088 9.472 26.368C8.74667 27.648 8.384 29.0987 8.384 30.72C8.384 32.384 8.74667 33.856 9.472 35.136C10.24 36.416 11.264 37.44 12.544 38.208C13.8667 38.9333 15.36 39.296 17.024 39.296Z" fill="white"/>
<path d="M45.879 45.44C44.4283 45.44 43.2123 44.9493 42.231 43.968C41.2497 42.944 40.759 41.7067 40.759 40.256C40.759 38.8907 41.2497 37.7173 42.231 36.736C43.2123 35.712 44.4283 35.2 45.879 35.2C47.415 35.2 48.6523 35.712 49.591 36.736C50.5723 37.7173 51.063 38.8907 51.063 40.256C51.063 41.7067 50.5723 42.944 49.591 43.968C48.6523 44.9493 47.415 45.44 45.879 45.44Z" fill="white"/>
</svg>
