<svg width="50" height="46" viewBox="0 0 50 46" fill="none" xmlns="http://www.w3.org/2000/svg">
<path d="M2.816 45.12L24 7.168H0V0H30.208V10.88L11.712 45.12H2.816Z" fill="white"/>
<path d="M44.343 45.44C42.8923 45.44 41.6763 44.9493 40.695 43.968C39.7137 42.944 39.223 41.7067 39.223 40.256C39.223 38.8907 39.7137 37.7173 40.695 36.736C41.6763 35.712 42.8923 35.2 44.343 35.2C45.879 35.2 47.1163 35.712 48.055 36.736C49.0363 37.7173 49.527 38.8907 49.527 40.256C49.527 41.7067 49.0363 42.944 48.055 43.968C47.1163 44.9493 45.879 45.44 44.343 45.44Z" fill="white"/>
</svg>
