<svg width="24" height="24" viewBox="0 0 24 24" fill="none" xmlns="http://www.w3.org/2000/svg">
<path d="M11.9727 8.34269C13.9948 8.33287 15.6394 9.96804 15.6493 11.9906C15.659 14.0131 14.0243 15.6573 12.0022 15.6672C9.98026 15.6769 8.33653 14.0425 8.32657 12.0201C8.31675 9.99765 9.95068 8.35262 11.9727 8.34269Z" fill="white"/>
<path fill-rule="evenodd" clip-rule="evenodd" d="M7.46271 1.07731C9.27898 0.974236 14.7214 0.974225 16.5373 1.07731C18.2992 1.16567 19.8599 1.56814 21.1458 2.85427C22.4365 4.1404 22.8392 5.70133 22.9227 7.46361C23.0258 9.27985 23.0258 14.7187 22.9227 16.5355C22.8344 18.2979 22.4317 19.8595 21.1458 21.1457C19.8599 22.4367 18.2992 22.8392 16.5373 22.9227C14.7214 23.0258 9.27899 23.0258 7.46271 22.9227C5.70072 22.8343 4.14417 22.4319 2.85335 21.1457C1.56263 19.8596 1.16072 18.2978 1.07729 16.5355C0.974243 14.7188 0.974234 9.27556 1.07729 7.45914C1.16563 5.69676 1.56254 4.13509 2.85335 2.84889C4.14417 1.5627 5.70563 1.16076 7.46271 1.07731ZM12.0022 6.35984C8.88568 6.35008 6.35353 8.87334 6.34371 11.9906C6.33399 15.1077 8.85624 17.641 11.9727 17.6509C15.0892 17.6607 17.6222 15.1373 17.6321 12.0201C17.6419 8.90285 15.1188 6.36966 12.0022 6.35984ZM17.872 4.81295C17.1458 4.81313 16.557 5.40247 16.557 6.12888C16.557 6.85532 17.1458 7.44463 17.872 7.44481C18.5984 7.44481 19.188 6.85543 19.188 6.12888C19.1879 5.40235 18.5984 4.81295 17.872 4.81295Z" fill="white"/>
</svg>
