<svg width="24" height="24" viewBox="0 0 24 24" fill="none" xmlns="http://www.w3.org/2000/svg">
<path d="M11.9739 8.50893C13.9041 8.49956 15.474 10.0604 15.4834 11.991C15.4927 13.9216 13.9323 15.4911 12.0021 15.5005C10.0721 15.5098 8.50305 13.9497 8.49354 12.0192C8.48417 10.0887 10.0438 8.51841 11.9739 8.50893Z" fill="white"/>
<path fill-rule="evenodd" clip-rule="evenodd" d="M7.66895 1.57379C9.40266 1.47541 14.5977 1.4754 16.331 1.57379C18.0129 1.65814 19.5026 2.04231 20.73 3.26998C21.9621 4.49765 22.3466 5.98764 22.4262 7.66981C22.5246 9.40349 22.5246 14.5951 22.4262 16.3293C22.3419 18.0116 21.9575 19.5023 20.73 20.73C19.5026 21.9623 18.0129 22.3465 16.331 22.4262C14.5977 22.5246 9.40267 22.5246 7.66895 22.4262C5.98705 22.3419 4.50125 21.9577 3.26911 20.73C2.03705 19.5023 1.65341 18.0116 1.57377 16.3293C1.47541 14.5952 1.47541 9.39939 1.57377 7.66554C1.6581 5.98327 2.03697 4.49258 3.26911 3.26485C4.50125 2.03713 5.99173 1.65346 7.66895 1.57379ZM12.0021 6.61621C9.02724 6.6069 6.61019 9.01546 6.60082 11.991C6.59154 14.9665 8.99914 17.3846 11.9739 17.394C14.9488 17.4034 17.3666 14.9947 17.3761 12.0192C17.3855 9.04363 14.9771 6.62558 12.0021 6.61621ZM17.6051 5.13963C16.9119 5.13981 16.3499 5.70235 16.3498 6.39575C16.3498 7.08917 16.9119 7.65169 17.6051 7.65187C18.2985 7.65187 18.8612 7.08927 18.8612 6.39575C18.8612 5.70224 18.2985 5.13963 17.6051 5.13963Z" fill="white"/>
</svg>
