<svg width="48" height="48" viewBox="0 0 48 48" fill="none" xmlns="http://www.w3.org/2000/svg">
<path d="M30 42H18V25.2C18 24.5372 18.5373 24 19.2 24H28.8C29.4628 24 30 24.5372 30 25.2V42Z" stroke="#131215" stroke-width="3" stroke-linecap="round" stroke-linejoin="round"/>
<path d="M40.8 42H30V36.2C30 35.5372 30.5372 35 31.2 35H40.8C41.4628 35 42 35.5372 42 36.2V40.8C42 41.4628 41.4628 42 40.8 42Z" stroke="#131215" stroke-width="3" stroke-linecap="round" stroke-linejoin="round"/>
<path d="M18 42V32.2C18 31.5372 17.4627 31 16.8 31H7.2C6.53726 31 6 31.5372 6 32.2V40.8C6 41.4628 6.53726 42 7.2 42H18Z" stroke="#131215" stroke-width="3" stroke-linecap="round" stroke-linejoin="round"/>
<path d="M21.6112 10.2265L23.4294 6.37121C23.6628 5.87626 24.3372 5.87626 24.5706 6.37121L26.3888 10.2265L30.455 10.8485C30.9768 10.9284 31.1846 11.5995 30.807 11.9846L27.8652 14.9834L28.5594 19.22C28.6486 19.764 28.103 20.179 27.6362 19.922L24 17.9206L20.3638 19.922C19.897 20.179 19.3514 19.764 19.4405 19.22L20.1348 14.9834L17.193 11.9846C16.8153 11.5995 17.0233 10.9284 17.545 10.8485L21.6112 10.2265Z" stroke="#131215" stroke-width="3" stroke-linecap="round" stroke-linejoin="round"/>
</svg>
