<svg width="54" height="56" viewBox="0 0 54 56" fill="none" xmlns="http://www.w3.org/2000/svg">
<path fill-rule="evenodd" clip-rule="evenodd" d="M27 0C34.5762 0 40.9576 2.66647 46.144 7.99934C51.3813 13.4348 54 20.0496 54 27.8437C54 35.7405 51.3305 42.4067 45.9916 47.8421C40.856 53.0724 34.5254 55.6875 27 55.6875C19.322 55.6875 12.8898 52.9698 7.70336 47.5344C2.56776 42.099 1.2508e-06 35.5354 0 27.8437C2.70818e-06 20.1521 2.56778 13.6142 7.70336 8.23005C12.9406 2.74336 19.3729 5.62989e-06 27 0ZM16.1756 29.9146C15.1294 29.6885 12.8699 29.2257 11.1962 29.5029C11.9377 36.4326 17.0389 42.0443 23.6777 43.4923C23.8067 43.0987 23.8694 42.6157 23.8152 42.0304C23.5933 39.6328 23.1812 37.4909 21.8498 35.381C20.5184 33.2711 17.507 30.2023 16.1756 29.9146ZM42.9467 29.451C41.4442 29.231 39.2732 29.3806 38.3655 29.9146C37.2243 30.5859 34.4347 32.5679 32.6912 35.381C30.9477 38.1942 30.6624 39.8566 30.5356 42.0304C30.5037 42.577 30.5817 43.0433 30.7197 43.4332C37.2478 41.8931 42.2345 36.3136 42.9467 29.451ZM27.2144 24.1091C25.1726 24.1091 23.5174 25.7783 23.5174 27.8374C23.5174 29.8965 25.1726 31.5658 27.2144 31.5658C29.2563 31.5658 30.9116 29.8965 30.9116 27.8374C30.9116 25.7783 29.2562 24.1091 27.2144 24.1091ZM27.0687 11.6549C19.6369 11.6549 13.3912 16.7756 11.6115 23.7091C12.6234 24.0038 14.4754 24.0012 17.5842 23.02C23.7544 21.0725 22.6746 19.8526 27.1326 19.8526C31.5907 19.8526 32.2385 21.8411 36.6014 23.02C39.7583 23.8731 41.3945 23.9241 42.4905 23.5742C40.6648 16.7093 34.4521 11.6549 27.0687 11.6549Z" fill="#121212"/>
</svg>
