<svg width="77" height="44" viewBox="0 0 77 44" fill="none" xmlns="http://www.w3.org/2000/svg">
<path fill-rule="evenodd" clip-rule="evenodd" d="M65.2677 0C68.2327 0 70.7301 1.0348 72.7599 3.10438C74.8096 5.21376 75.8344 7.78082 75.8344 10.8056C75.8344 13.8702 74.7897 16.4572 72.7002 18.5665C70.6904 20.5963 68.2128 21.6112 65.2677 21.6112C62.2628 21.6112 59.7455 20.5565 57.7157 18.4471C55.7059 16.3378 54.7009 13.7906 54.7009 10.8056C54.7009 7.82063 55.7059 5.28339 57.7157 3.19392C59.7654 1.06464 62.2827 2.18485e-06 65.2677 0ZM61.0314 11.6092C60.622 11.5215 59.7377 11.3419 59.0827 11.4495C59.3729 14.1387 61.3693 16.3165 63.9675 16.8785C64.0179 16.7257 64.0425 16.5383 64.0213 16.3111C63.9345 15.3807 63.7732 14.5495 63.2521 13.7307C62.7311 12.9119 61.5525 11.7209 61.0314 11.6092ZM71.5086 11.4293C70.9206 11.3439 70.0709 11.402 69.7157 11.6092C69.2691 11.8698 68.1773 12.6389 67.495 13.7307C66.8127 14.8224 66.701 15.4675 66.6514 16.3111C66.6389 16.5233 66.6694 16.7042 66.7234 16.8555C69.2783 16.2578 71.2299 14.0926 71.5086 11.4293ZM65.3516 9.35625C64.5525 9.35625 63.9047 10.004 63.9047 10.8031C63.9047 11.6022 64.5525 12.2501 65.3516 12.2501C66.1507 12.2501 66.7985 11.6022 66.7985 10.8031C66.7985 10.004 66.1507 9.35625 65.3516 9.35625ZM65.2946 4.52303C62.3861 4.52303 59.9418 6.51027 59.2452 9.20103C59.6413 9.31537 60.366 9.31439 61.5827 8.9336C63.9975 8.1778 63.5749 7.70439 65.3196 7.70439C67.0643 7.7044 67.3178 8.47607 69.0253 8.9336C70.2608 9.26465 70.9011 9.28447 71.3301 9.14866C70.6156 6.48452 68.1842 4.52303 65.2946 4.52303Z" fill="white"/>
<path d="M23.8952 11.752C23.8952 13.1915 24.2698 14.3351 25.0191 15.183C25.7487 16.0506 26.6557 16.4844 27.7402 16.4844C28.8247 16.4844 29.7416 16.0506 30.4908 15.183C31.2204 14.3351 31.5852 13.1915 31.5852 11.752V0.453661H36.6132V11.752C36.6132 13.1717 36.3963 14.4633 35.9625 15.6266C35.5485 16.79 34.9076 17.835 34.04 18.7618C32.3246 20.5956 30.2246 21.5125 27.7402 21.5125C25.2557 21.5125 23.1558 20.5956 21.4403 18.7618C19.7249 16.928 18.8671 14.5914 18.8671 11.752V0.453661H23.8952V11.752Z" fill="white"/>
<path fill-rule="evenodd" clip-rule="evenodd" d="M13.7766 18.4069H6.41196L5.46547 21.1575H6.10352e-05L7.24011 0.453661L13.7766 18.4069ZM8.12741 13.3788H11.9428L9.96117 7.96619L8.12741 13.3788Z" fill="white"/>
<path d="M54.7478 5.48175H48.8262V21.1575H43.7981V5.48175H37.8469V0.453661H54.7478V5.48175Z" fill="white"/>
<path d="M37.5256 43.9998V23.2959H53.2737V28.324H42.5536V31.1338H51.2034V36.1323H42.5536V38.9717H53.3033V43.9998H37.5256Z" fill="#28C25B"/>
<path d="M65.6618 28.324H61.583V38.9717H65.6618C67.1406 38.9717 68.4026 38.4492 69.4476 37.4041C70.473 36.3788 70.9856 35.1267 70.9856 33.6478C70.9856 32.169 70.473 30.907 69.4476 29.862C68.4026 28.8366 67.1406 28.324 65.6618 28.324ZM65.6618 23.2959C68.5209 23.2959 70.9659 24.3015 72.9968 26.3127C75.0081 28.3437 76.0137 30.7887 76.0137 33.6478C76.0137 35.0872 75.7573 36.4182 75.2447 37.6407C74.7517 38.8435 74.0025 39.9477 72.9968 40.9533C70.9659 42.9843 68.5209 43.9998 65.6618 43.9998H56.5549V23.2959H65.6618Z" fill="#28C25B"/>
<path d="M22.9302 44L7.24097 0.454102H12.5402L25.5626 36.4877L30.2065 23.2965H35.5299L28.2246 44H22.9302Z" fill="url(#paint0_linear_1273_26)"/>
<defs>
<linearGradient id="paint0_linear_1273_26" x1="21.3818" y1="44.9754" x2="10.4223" y2="0.454119" gradientUnits="userSpaceOnUse">
<stop offset="0.125997" stop-color="#28C25B"/>
<stop offset="0.221182" stop-color="#28C25B"/>
<stop offset="0.283003" stop-color="#28C25B"/>
<stop offset="0.354548" stop-color="#28C25B"/>
<stop offset="0.424907" stop-color="#27B857"/>
<stop offset="0.484056" stop-color="#25A850"/>
<stop offset="0.62163" stop-color="white"/>
</linearGradient>
</defs>
</svg>
