<svg width="48" height="48" viewBox="0 0 48 48" fill="none" xmlns="http://www.w3.org/2000/svg">
<path d="M40 24V11.4971C40 11.1788 39.8736 10.8736 39.6486 10.6485L33.3514 4.35148C33.1264 4.12642 32.8212 4 32.503 4H9.2C8.53726 4 8 4.53726 8 5.2V42.8C8 43.4628 8.53726 44 9.2 44H22" stroke="#131215" stroke-width="3" stroke-linecap="round" stroke-linejoin="round"/>
<path d="M16 20H32M16 12H24M16 28H22" stroke="#131215" stroke-width="3" stroke-linecap="round" stroke-linejoin="round"/>
<path d="M32.6112 34.2267L34.4294 30.3713C34.6628 29.8762 35.3372 29.8762 35.5706 30.3713L37.3888 34.2267L41.455 34.8486C41.9768 34.9284 42.1846 35.5996 41.807 35.9846L38.8652 38.9834L39.5594 43.2201C39.6486 43.7641 39.103 44.1791 38.6362 43.9221L35 41.9207L31.3638 43.9221C30.897 44.1791 30.3514 43.7641 30.4406 43.2201L31.1348 38.9834L28.193 35.9846C27.8154 35.5996 28.0232 34.9284 28.545 34.8486L32.6112 34.2267Z" stroke="#131215" stroke-width="3" stroke-linecap="round" stroke-linejoin="round"/>
<path d="M32 4V10.8C32 11.4627 32.5372 12 33.2 12H40" stroke="#131215" stroke-width="3" stroke-linecap="round" stroke-linejoin="round"/>
</svg>
