<svg width="26" height="26" viewBox="0 0 26 26" fill="none" xmlns="http://www.w3.org/2000/svg">
<path d="M11.4799 14.5203L17.3876 8.61256M23.4309 5.0072L18.4442 21.2139C17.9973 22.6663 17.7737 23.3929 17.3882 23.6337C17.0539 23.8426 16.64 23.8775 16.2758 23.7265C15.856 23.5523 15.5152 22.8719 14.8354 21.5123L11.6769 15.1953C11.569 14.9795 11.5151 14.8721 11.443 14.7786C11.379 14.6957 11.3053 14.6209 11.2223 14.557C11.1309 14.4866 11.0253 14.4338 10.8192 14.3307L4.48763 11.1649C3.12802 10.4851 2.44816 10.1449 2.27394 9.72506C2.12286 9.36094 2.15731 8.94662 2.36621 8.61229C2.60707 8.22679 3.33357 8.00283 4.78644 7.5558L20.9932 2.56911C22.1354 2.21766 22.7067 2.04208 23.0925 2.18372C23.4286 2.30708 23.6935 2.57175 23.8168 2.9078C23.9584 3.29341 23.7827 3.86446 23.4316 5.00552L23.4309 5.0072Z" stroke="white" stroke-width="2" stroke-linecap="round" stroke-linejoin="round"/>
</svg>
