<svg width="640" height="480" viewBox="0 0 640 480" fill="none" xmlns="http://www.w3.org/2000/svg">
<rect width="640" height="480" fill="#EE1C25"/>
<path d="M247.852 211.682L264.894 217.968L247.412 222.899L246.7 241.049L236.608 225.947L219.127 230.879L230.371 216.613L220.278 201.512L237.32 207.798L248.563 193.532L247.852 211.682Z" fill="#FFFF00"/>
<path d="M293.519 160.317L311.654 159.312L297.573 170.785L304.133 187.723L288.87 177.876L274.789 189.35L279.438 171.791L264.175 161.944L282.311 160.938L286.958 143.38L293.519 160.317Z" fill="#FFFF00"/>
<path d="M136.39 98.4414H189.427L146.519 129.616L162.908 180.059L120 148.884L77.0918 180.059L93.4814 129.616L50.5732 98.4414H103.61L120 48L136.39 98.4414Z" fill="#FFFF00"/>
<path d="M289.915 86.9336L306.158 78.8037L297.796 94.9277L310.548 107.863L292.629 104.894L284.267 121.019L281.554 103.059L263.635 100.089L279.877 91.959L277.164 73.999L289.915 86.9336Z" fill="#FFFF00"/>
<path d="M248.64 42.4814L265.482 49.2822L247.858 53.6797L246.595 71.7988L236.967 56.3975L219.344 60.7939L231.017 46.8779L221.389 31.4756L238.231 38.2773L249.904 24.3613L248.64 42.4814Z" fill="#FFFF00"/>
</svg>
