<svg width="640" height="480" viewBox="0 0 640 480" fill="none" xmlns="http://www.w3.org/2000/svg">
<rect width="640" height="480" fill="white"/>
<circle cx="320" cy="240" r="120" fill="#0047A0"/>
<path d="M440 240C440 263.741 433.105 285.872 421.209 304.5C441.5 268.5 423 217 373.5 213.5C343.854 211.404 329.5 226.5 314 247C298.5 267.5 260.546 271.836 240.5 259.5C201.5 235.5 206.205 196.402 217 178.393C237.968 143.413 276.25 120 320 120C386.274 120 440 173.726 440 240Z" fill="#CD2E3A"/>
<path d="M536.925 386.739L506.145 433.494L488.604 421.947L519.385 375.191L536.925 386.739Z" fill="black"/>
<path d="M153.908 421.44L136.335 432.937L70.6396 332.517L88.2139 321.021L153.908 421.44Z" fill="black"/>
<path d="M511.032 369.693L480.239 416.468L462.699 404.92L493.491 358.146L511.032 369.693Z" fill="black"/>
<path d="M179.85 404.469L162.276 415.965L132.166 369.938L149.739 358.442L179.85 404.469Z" fill="black"/>
<path d="M485.139 352.647L454.334 399.439L436.794 387.893L467.599 341.101L485.139 352.647Z" fill="black"/>
<path d="M205.792 387.498L188.219 398.994L122.524 298.574L140.098 287.078L205.792 387.498Z" fill="black"/>
<path d="M572.129 333.264L541.874 379.222L524.333 367.675L554.589 321.717L572.129 333.264Z" fill="black"/>
<path d="M144.812 350.911L127.239 362.407L96.582 315.545L114.155 304.049L144.812 350.911Z" fill="black"/>
<path d="M546.224 316.237L515.98 362.176L498.44 350.629L528.684 304.69L546.224 316.237Z" fill="black"/>
<path d="M520.318 299.209L490.088 345.13L472.548 333.583L502.778 287.662L520.318 299.209Z" fill="black"/>
<path d="M520.793 181.426L503.22 192.922L472.656 146.204L490.23 134.708L520.793 181.426Z" fill="black"/>
<path d="M205.757 92.4619L139.772 192.692L122.232 181.146L188.217 80.915L205.757 92.4619Z" fill="black"/>
<path d="M546.734 164.455L529.161 175.951L463.467 75.5312L481.04 64.0342L546.734 164.455Z" fill="black"/>
<path d="M179.852 75.4355L113.867 175.666L96.3271 164.119L162.312 63.8887L179.852 75.4355Z" fill="black"/>
<path d="M572.677 147.483L555.104 158.98L524.493 112.189L542.066 100.692L572.677 147.483Z" fill="black"/>
<path d="M153.946 58.4082L87.9619 158.638L70.4219 147.091L136.406 46.8604L153.946 58.4082Z" fill="black"/>
<path d="M485.303 127.176L467.729 138.673L437.525 92.502L455.099 81.0059L485.303 127.176Z" fill="black"/>
<path d="M537.14 93.1621L519.566 104.658L489.409 58.5596L506.982 47.0635L537.14 93.1621Z" fill="black"/>
</svg>
