<svg width="77" height="44" viewBox="0 0 77 44" fill="none" xmlns="http://www.w3.org/2000/svg">
<path fill-rule="evenodd" clip-rule="evenodd" d="M65.2677 -1.52588e-05C68.2327 -1.52588e-05 70.7301 1.03479 72.7599 3.10436C74.8096 5.21374 75.8344 7.78081 75.8344 10.8056C75.8344 13.8701 74.7897 16.4571 72.7002 18.5665C70.6904 20.5963 68.2128 21.6112 65.2677 21.6112C62.2628 21.6112 59.7455 20.5565 57.7157 18.4471C55.7059 16.3377 54.7009 13.7905 54.7009 10.8056C54.7009 7.82061 55.7059 5.28338 57.7157 3.1939C59.7654 1.06463 62.2827 -1.30739e-05 65.2677 -1.52588e-05ZM61.0314 11.6092C60.622 11.5215 59.7377 11.3419 59.0827 11.4495C59.3729 14.1387 61.3693 16.3165 63.9675 16.8785C64.0179 16.7257 64.0425 16.5383 64.0213 16.3111C63.9345 15.3807 63.7732 14.5494 63.2521 13.7306C62.7311 12.9118 61.5525 11.7209 61.0314 11.6092ZM71.5086 11.4293C70.9206 11.3439 70.0709 11.402 69.7157 11.6092C69.2691 11.8698 68.1773 12.6389 67.495 13.7306C66.8127 14.8224 66.701 15.4675 66.6514 16.3111C66.6389 16.5233 66.6694 16.7042 66.7234 16.8555C69.2783 16.2578 71.2299 14.0926 71.5086 11.4293ZM65.3516 9.35623C64.5525 9.35624 63.9047 10.004 63.9047 10.8031C63.9047 11.6022 64.5525 12.25 65.3516 12.25C66.1507 12.25 66.7985 11.6022 66.7985 10.8031C66.7985 10.004 66.1507 9.35624 65.3516 9.35623ZM65.2946 4.52301C62.3861 4.52301 59.9418 6.51025 59.2452 9.20101C59.6413 9.31536 60.366 9.31438 61.5827 8.93358C63.9975 8.17778 63.5749 7.70438 65.3196 7.70438C67.0643 7.70438 67.3178 8.47606 69.0253 8.93358C70.2608 9.26463 70.9011 9.28446 71.3301 9.14864C70.6156 6.48451 68.1842 4.52301 65.2946 4.52301Z" fill="#121212"/>
<path d="M23.8952 11.752C23.8952 13.1914 24.2698 14.3351 25.0191 15.183C25.7487 16.0506 26.6557 16.4843 27.7402 16.4843C28.8247 16.4843 29.7416 16.0505 30.4908 15.183C31.2204 14.3351 31.5852 13.1914 31.5852 11.752V0.453646H36.6132V11.752C36.6132 13.1717 36.3963 14.4633 35.9625 15.6266C35.5485 16.79 34.9076 17.835 34.04 18.7618C32.3246 20.5955 30.2246 21.5124 27.7402 21.5124C25.2557 21.5124 23.1558 20.5955 21.4403 18.7618C19.7249 16.928 18.8671 14.5914 18.8671 11.752V0.453646H23.8952V11.752Z" fill="#121212"/>
<path fill-rule="evenodd" clip-rule="evenodd" d="M13.7766 18.4068H6.41196L5.46547 21.1575H6.10352e-05L7.24011 0.453646L13.7766 18.4068ZM8.12741 13.3788H11.9428L9.96117 7.96618L8.12741 13.3788Z" fill="#121212"/>
<path d="M54.7478 5.48174H48.8262V21.1575H43.7981V5.48174H37.8469V0.453646H54.7478V5.48174Z" fill="#121212"/>
<path d="M37.5256 44V23.2961H53.2737V28.3242H42.5536V31.134H51.2034V36.1325H42.5536V38.9719H53.3033V44H37.5256Z" fill="#28C25B"/>
<path d="M65.6618 28.3242H61.583V38.9719H65.6618C67.1406 38.9719 68.4026 38.4494 69.4476 37.4043C70.473 36.379 70.9856 35.1269 70.9856 33.6481C70.9856 32.1692 70.473 30.9073 69.4476 29.8622C68.4026 28.8369 67.1406 28.3242 65.6618 28.3242ZM65.6618 23.2961C68.5209 23.2961 70.9659 24.3017 72.9968 26.313C75.0081 28.3439 76.0137 30.789 76.0137 33.6481C76.0137 35.0875 75.7573 36.4184 75.2447 37.641C74.7517 38.8437 74.0025 39.948 72.9968 40.9536C70.9659 42.9845 68.5209 44 65.6618 44H56.5549V23.2961H65.6618Z" fill="#28C25B"/>
<path d="M22.9302 43.9998L7.24097 0.453888H12.5402L25.5626 36.4875L30.2065 23.2963H35.5299L28.2246 43.9998H22.9302Z" fill="url(#paint0_linear_1191_121)"/>
<defs>
<linearGradient id="paint0_linear_1191_121" x1="21.3818" y1="44.9752" x2="10.4223" y2="0.453906" gradientUnits="userSpaceOnUse">
<stop offset="0.125997" stop-color="#28C25B"/>
<stop offset="0.221182" stop-color="#28C25B"/>
<stop offset="0.283003" stop-color="#28C25B"/>
<stop offset="0.354548" stop-color="#28C25B"/>
<stop offset="0.424907" stop-color="#27B857"/>
<stop offset="0.484056" stop-color="#25A850"/>
<stop offset="0.62163" stop-color="#121212"/>
</linearGradient>
</defs>
</svg>
