<svg width="23" height="24" viewBox="0 0 23 24" fill="none" xmlns="http://www.w3.org/2000/svg">
<g clip-path="url(#clip0_1191_127)">
<path d="M11.5 0.375C5.14718 0.375 0 5.57812 0 12C0 18.4219 5.14718 23.625 11.5 23.625C17.8528 23.625 23 18.4219 23 12C23 5.57812 17.8528 0.375 11.5 0.375ZM16.8327 8.28281C16.6611 10.1203 15.9099 14.5828 15.5296 16.6406C15.3673 17.5125 15.052 17.8031 14.746 17.8312C14.0782 17.8922 13.5728 17.3859 12.9236 16.9547C11.9127 16.2844 11.3377 15.8672 10.3593 15.2109C9.22319 14.4562 9.96048 14.0391 10.605 13.3594C10.7766 13.1813 13.7165 10.4766 13.7722 10.2328C13.7815 10.2 13.7861 10.0875 13.7165 10.0266C13.647 9.96562 13.5496 9.98906 13.48 10.0031C13.378 10.025 11.7612 11.1047 8.62964 13.2422C8.17211 13.5609 7.75632 13.7156 7.38226 13.7062C6.96956 13.6969 6.18125 13.4719 5.59234 13.2797C4.87359 13.0453 4.29859 12.9188 4.3496 12.5156C4.37433 12.3062 4.66028 12.0922 5.20746 11.8734C8.55854 10.3984 10.7936 9.425 11.9127 8.95312C15.1077 7.6125 15.7708 7.37812 16.202 7.36875C16.2994 7.36875 16.5081 7.39219 16.6472 7.50469C16.738 7.58538 16.7958 7.69733 16.8095 7.81875C16.8346 7.97205 16.8423 8.12774 16.8327 8.28281Z" fill="white"/>
</g>
<defs>
<clipPath id="clip0_1191_127">
<rect width="23" height="24" fill="white"/>
</clipPath>
</defs>
</svg>
