<svg width="21" height="24" viewBox="0 0 21 24" fill="none" xmlns="http://www.w3.org/2000/svg">
<path d="M1.47656 2.97656C0 4.45312 0 6.82969 0 11.5781V12.4219C0 17.1703 0 19.5469 1.47656 21.0234C2.95312 22.5 5.32969 22.5 10.0781 22.5H10.9219C15.6703 22.5 18.0469 22.5 19.5234 21.0234C21 19.5469 21 17.1703 21 12.4219V11.5781C21 6.82969 21 4.45312 19.5234 2.97656C18.0469 1.5 15.6703 1.5 10.9219 1.5H10.0781C5.32969 1.5 2.95312 1.5 1.47656 2.97656ZM3.54375 7.88906H5.93906C6.01875 11.8969 7.78594 13.5937 9.1875 13.9406V7.88906H11.4469V11.3438C12.8297 11.1937 14.2781 9.61875 14.7703 7.88906H17.0297C16.8422 8.78438 16.4766 9.6375 15.9469 10.3875C15.4172 11.1375 14.7422 11.7703 13.9547 12.2438C14.8313 12.6797 15.6047 13.2937 16.2234 14.0531C16.8469 14.8078 17.2969 15.6844 17.5547 16.6266H15.0656C14.8406 15.8109 14.3719 15.075 13.7297 14.5219C13.0828 13.9641 12.2906 13.6125 11.4469 13.5047V16.6266H11.175C6.38906 16.6266 3.65625 13.3453 3.54375 7.88906Z" fill="white"/>
</svg>
